<?xml version="1.0" standalone="no"?>
<!DOCTYPE svg PUBLIC "-//W3C//DTD SVG 20010904//EN"
 "http://www.w3.org/TR/2001/REC-SVG-20010904/DTD/svg10.dtd">
<svg version="1.0" xmlns="http://www.w3.org/2000/svg"
 width="1500.000000pt" height="1500.000000pt" viewBox="0 0 1500.000000 1500.000000"
 preserveAspectRatio="xMidYMid meet">
<metadata>
Created by potrace 1.14, written by Peter Selinger 2001-2017
</metadata>
<g transform="translate(0.000000,1500.000000) scale(0.100000,-0.100000)"
fill="#000000" stroke="none">
<path d="M4845 14575 c-110 -24 -219 -70 -310 -130 -74 -48 -173 -141 -549
-515 -252 -250 -508 -508 -567 -574 -101 -110 -116 -133 -219 -321 -147 -271
-150 -278 -162 -505 l-9 -185 59 -190 59 -189 -39 -19 c-21 -11 -49 -32 -62
-48 -14 -16 -27 -29 -31 -29 -3 0 -67 39 -142 87 -75 47 -165 97 -202 111 -98
35 -400 104 -428 97 -107 -26 -136 -46 -286 -194 -156 -153 -184 -191 -212
-281 l-17 -55 47 -180 c73 -278 84 -303 256 -580 85 -137 158 -255 162 -261 3
-6 -123 20 -281 58 l-287 69 -170 -6 c-93 -4 -197 -13 -230 -21 -88 -21 -164
-63 -191 -104 -29 -43 -152 -327 -183 -422 -22 -66 -22 -69 -6 -120 23 -71 48
-113 182 -304 l114 -164 246 -217 c240 -213 245 -218 212 -221 -19 -2 -140
-11 -269 -22 -163 -13 -253 -25 -295 -39 -33 -10 -134 -43 -225 -71 -91 -29
-184 -63 -207 -77 -83 -48 -125 -167 -143 -400 -11 -137 -11 -156 5 -205 34
-102 60 -133 239 -280 l171 -141 342 -168 c221 -109 346 -175 353 -189 6 -12
10 -35 8 -52 -3 -30 -6 -31 -285 -143 -155 -62 -299 -123 -320 -136 -21 -13
-102 -74 -180 -137 -150 -120 -177 -152 -208 -252 l-17 -56 36 -164 c63 -282
96 -360 171 -405 25 -14 149 -64 276 -111 l231 -85 324 -46 324 -46 26 -38
c14 -21 28 -55 31 -76 l5 -38 -226 -213 -225 -212 -99 -198 c-55 -108 -107
-221 -117 -250 -16 -51 -16 -54 4 -115 12 -34 70 -143 129 -241 116 -194 130
-208 241 -248 46 -17 90 -21 246 -25 l190 -5 332 82 332 82 36 -28 c75 -57 80
-35 -79 -353 -179 -357 -191 -392 -183 -521 18 -289 179 -751 377 -1080 327
-545 744 -944 1385 -1328 527 -315 1369 -643 1895 -737 437 -78 674 -99 1130
-100 479 0 796 27 1250 106 600 104 1112 252 1785 517 479 188 716 301 1080
515 257 150 286 170 555 373 275 207 406 320 607 520 174 174 221 237 248 325
17 55 17 57 -4 122 -22 66 -45 102 -412 662 l-125 190 68 106 69 106 477 -107
477 -107 65 22 c103 35 128 54 170 125 67 114 214 439 307 680 94 241 273 797
273 847 0 33 -39 134 -64 168 -13 17 -198 150 -410 294 -212 144 -386 268
-386 274 1 7 13 70 29 141 22 103 31 131 47 138 10 4 186 39 389 78 204 39
397 80 431 91 175 56 221 143 244 459 17 221 24 942 12 1150 -17 285 -59 366
-220 421 -30 10 -220 51 -421 89 -201 39 -375 74 -386 79 -17 7 -24 30 -43
147 -13 77 -25 150 -28 164 -4 23 26 46 388 290 273 185 400 276 419 303 15
21 37 67 49 102 l21 63 -40 163 c-87 355 -213 763 -342 1106 -89 237 -113 286
-157 323 -36 30 -138 70 -178 70 -12 0 -232 -47 -489 -105 -258 -58 -473 -105
-479 -105 -6 1 -45 57 -86 127 -41 69 -84 140 -94 158 l-19 31 298 454 c164
250 310 482 324 515 47 114 26 180 -119 374 -202 269 -472 559 -716 768 -155
132 -218 175 -293 198 -58 17 -60 17 -124 -4 -74 -25 -108 -47 -509 -336 -160
-115 -314 -227 -343 -247 l-52 -37 -89 65 c-49 37 -121 88 -160 115 l-71 50
54 262 c30 144 70 343 90 442 l35 180 -17 55 c-37 118 -79 161 -194 201 -52
18 -143 19 -2850 18 -2289 0 -2807 -3 -2856 -14z m5638 -287 c-10 -58 -71
-354 -133 -653 -33 -159 -60 -299 -60 -310 0 -14 20 -33 63 -60 103 -66 224
-153 376 -269 79 -61 149 -115 156 -120 8 -6 95 51 281 185 148 108 367 266
488 352 l218 158 97 -78 c53 -42 193 -174 312 -293 209 -209 314 -327 465
-525 l73 -96 -152 -232 c-84 -127 -241 -366 -349 -532 -196 -298 -197 -300
-180 -325 81 -123 184 -290 252 -410 45 -80 88 -155 96 -166 13 -21 13 -21
565 102 304 69 556 121 560 117 14 -16 139 -354 207 -563 74 -227 164 -546
203 -718 19 -89 21 -105 8 -116 -8 -8 -211 -148 -452 -311 -326 -222 -436
-302 -432 -314 11 -37 75 -407 91 -528 l17 -131 286 -56 c157 -30 383 -74 502
-97 l216 -42 7 -91 c14 -204 18 -672 7 -916 -12 -254 -29 -501 -37 -509 -2 -2
-231 -48 -510 -102 -278 -54 -507 -99 -509 -101 -1 -2 -15 -73 -30 -158 -15
-85 -43 -220 -61 -300 -19 -79 -34 -151 -34 -160 0 -9 184 -140 441 -314 242
-165 442 -303 444 -307 6 -9 -64 -248 -137 -464 -117 -348 -371 -935 -404
-935 -6 0 -251 54 -545 120 -293 66 -533 119 -534 117 -50 -86 -151 -246 -228
-359 l-99 -147 39 -63 c22 -35 158 -242 302 -461 l261 -399 -95 -102 c-265
-287 -606 -564 -986 -803 l-95 -60 -135 101 c-74 56 -359 265 -634 465 -703
513 -717 524 -830 636 -173 173 -279 333 -305 461 -8 35 -10 230 -8 601 3 533
4 549 24 600 32 77 77 128 141 159 108 53 337 41 584 -30 131 -38 285 -57 515
-63 246 -6 339 4 464 50 l85 32 226 675 c226 674 226 675 208 701 -16 23 -130
160 -485 584 -363 433 -534 708 -707 1141 -101 251 -110 277 -233 659 -187
586 -316 852 -509 1053 l-75 79 0 74 c0 97 -20 684 -26 776 l-6 71 -101 118
c-56 64 -326 374 -601 688 l-498 571 -102 48 c-55 27 -207 98 -336 159 -129
60 -237 111 -238 113 -2 2 -26 163 -52 358 l-49 355 -112 225 -113 225 -291
57 c-159 31 -295 57 -301 58 -6 1 -93 -71 -192 -161 l-180 -163 -113 -325
c-129 -368 -121 -356 -213 -330 l-51 15 -171 343 -171 343 -173 180 c-95 99
-180 181 -189 182 -9 1 -153 -17 -320 -40 l-304 -42 -103 -229 -103 -229 -7
-368 c-5 -275 -10 -369 -19 -369 -7 0 -131 125 -275 278 l-264 277 -243 130
c-134 71 -243 132 -243 135 0 15 1052 1053 1095 1079 53 33 98 49 180 61 28 4
1298 8 2822 9 l2772 1 -6 -32z m-4943 -1045 l123 -128 186 -375 186 -375 125
-32 125 -33 119 17 c65 10 124 22 131 28 7 5 69 172 138 370 l126 360 93 88
c51 48 102 94 113 102 17 11 43 9 190 -21 94 -18 173 -33 177 -34 5 0 41 -67
82 -148 l74 -148 53 -389 c29 -215 56 -399 59 -410 6 -14 111 -68 375 -190
l368 -170 563 -643 c552 -630 564 -644 564 -685 0 -23 7 -234 15 -468 l14
-427 108 -108 c204 -206 286 -381 528 -1128 94 -291 217 -614 307 -807 132
-282 357 -609 687 -999 58 -69 163 -193 233 -277 l127 -152 -185 -555 -186
-556 -41 -12 c-64 -19 -423 -16 -570 6 -120 17 -277 66 -529 165 l-106 42 -43
107 c-249 626 -491 1080 -681 1277 -83 88 -144 125 -202 125 -31 0 -36 -3 -32
-17 3 -10 127 -373 275 -808 181 -533 265 -792 257 -796 -6 -4 -49 -15 -96
-25 -126 -28 -395 -25 -505 5 -103 27 -223 85 -304 146 -100 76 -143 139 -222
325 -99 232 -293 703 -346 840 -25 63 -48 118 -52 122 -3 4 -53 14 -111 23
-354 52 -613 171 -881 403 -157 135 -283 279 -659 754 -107 135 -198 244 -202
242 -9 -6 -54 -146 -68 -214 -22 -100 -24 -323 -6 -468 114 -895 866 -2092
1926 -3067 599 -551 999 -864 2480 -1945 809 -590 796 -581 776 -595 -9 -7
-110 -60 -224 -118 -626 -318 -1257 -515 -1815 -568 -175 -16 -481 -6 -607 19
-180 37 -252 68 -405 171 -980 660 -1885 1548 -2491 2446 -792 1172 -1175
2454 -1116 3729 11 230 36 498 61 657 6 34 9 65 6 67 -2 3 -47 -83 -99 -189
-260 -534 -407 -1038 -482 -1649 -22 -180 -31 -742 -15 -951 89 -1176 537
-2405 1285 -3519 279 -415 620 -823 801 -957 69 -52 79 -53 -170 18 -1513 428
-2567 1231 -2970 2261 -84 217 -146 522 -128 634 4 21 82 188 175 371 l169
331 -57 114 -57 113 -109 84 -110 83 -365 -91 -365 -92 -184 7 -185 7 -89 149
-90 149 79 158 79 158 269 253 c147 140 269 257 271 261 1 3 -6 66 -18 139
l-20 133 -85 113 c-64 85 -91 114 -112 118 -15 3 -189 28 -385 56 l-357 51
-186 69 c-103 37 -189 70 -191 73 -2 2 -20 75 -39 163 -20 87 -38 166 -41 175
-3 12 36 49 140 132 l144 115 334 132 c183 73 338 138 343 145 6 7 21 63 33
124 l23 111 -42 113 c-23 61 -47 117 -53 124 -6 7 -168 88 -361 182 l-350 169
-168 137 -167 136 5 47 c3 26 10 101 16 167 6 66 12 121 14 123 2 2 82 27 179
57 l176 53 328 26 c467 37 413 25 478 111 l56 74 -16 97 c-8 54 -19 100 -24
103 -5 3 -142 124 -304 268 l-296 262 -115 166 -116 165 69 162 c38 90 73 164
77 165 4 1 87 7 183 12 l175 11 383 -91 382 -91 78 49 77 49 3 92 3 93 -215
345 -216 345 -49 189 -49 188 132 130 131 131 169 -41 169 -40 343 -220 344
-220 73 17 c39 10 79 21 88 26 9 4 33 40 53 79 l37 70 -120 398 -121 397 11
170 c6 94 14 173 17 176 4 4 73 43 155 87 l147 81 156 -82 156 -82 286 -300
286 -300 56 -6 c30 -4 83 -7 118 -8 63 -1 63 -1 141 62 l78 62 6 230 c4 127 7
307 7 402 l0 171 65 143 c35 79 68 145 73 147 8 2 318 48 348 51 6 0 67 -56
134 -126z"/>
<path d="M10322 12661 c-57 -21 -106 -41 -109 -44 -13 -14 10 -39 72 -77 41
-26 62 -46 58 -53 -4 -7 -134 -207 -290 -446 -156 -239 -283 -442 -283 -450 1
-16 176 -141 198 -141 10 0 706 920 767 1014 l19 29 -36 32 c-72 62 -247 175
-270 175 -12 -1 -69 -18 -126 -39z"/>
<path d="M10856 12148 c-87 -90 -111 -126 -100 -152 12 -31 187 -186 210 -186
10 0 41 23 69 50 l51 51 126 -128 c254 -257 258 -267 161 -350 -94 -80 -128
-103 -155 -103 -20 0 -47 24 -121 108 -52 59 -144 155 -203 213 l-109 106 -70
6 c-39 4 -96 7 -127 7 l-57 0 -190 -226 c-105 -125 -191 -231 -191 -238 0 -6
48 -55 108 -110 136 -125 299 -299 415 -444 59 -74 95 -111 105 -107 39 15
161 112 161 128 1 31 -143 209 -326 405 l-116 123 24 27 c13 15 50 55 83 90
53 54 65 62 97 62 34 0 45 -8 141 -112 57 -62 133 -147 168 -188 35 -41 70
-79 77 -83 21 -13 190 -57 216 -57 23 0 385 260 401 288 5 8 6 66 4 128 -4 86
-10 120 -23 141 -44 67 -182 221 -349 389 l-181 181 -90 12 c-49 6 -105 14
-124 17 -30 5 -38 0 -85 -48z"/>
<path d="M11675 10997 l-170 -112 -17 -64 c-9 -35 -19 -65 -20 -67 -2 -1 -33
2 -69 8 l-66 12 -149 -98 c-82 -53 -157 -103 -166 -110 -12 -9 -23 -43 -33
-102 -9 -49 -18 -96 -20 -104 -3 -8 1 -26 9 -40 7 -14 40 -74 73 -135 33 -60
84 -162 113 -225 29 -63 59 -123 69 -134 23 -26 165 -96 195 -96 28 0 343 115
364 133 8 6 25 35 38 64 12 29 26 53 30 53 3 0 34 -12 67 -27 l60 -27 61 21
c183 64 319 117 330 129 8 7 26 65 42 128 l28 114 -29 74 c-39 99 -247 510
-293 578 -34 51 -44 57 -137 97 -55 23 -109 43 -120 43 -11 0 -96 -51 -190
-113z m284 -241 c21 -11 47 -54 109 -176 80 -157 97 -213 74 -246 -14 -22
-200 -97 -225 -90 -19 4 -42 42 -117 190 -67 135 -91 192 -86 209 4 16 32 38
98 75 51 28 99 52 106 52 7 0 25 -6 41 -14z m-457 -283 c10 -9 49 -79 88 -157
60 -121 69 -147 64 -175 -7 -36 2 -30 -168 -104 -46 -20 -64 -23 -80 -15 -29
15 -180 320 -171 347 3 12 47 44 103 76 101 58 126 62 164 28z"/>
<path d="M12180 9745 c-307 -96 -490 -153 -611 -189 l-85 -26 -48 -99 -47 -99
31 -143 c17 -79 42 -213 54 -298 l23 -153 79 -79 79 -79 140 10 c77 6 304 19
505 31 423 23 378 9 456 152 l47 89 -6 91 c-8 113 -46 341 -92 547 l-34 155
-63 58 c-60 56 -145 118 -157 116 -3 0 -125 -38 -271 -84z m270 -285 c32 -23
39 -46 75 -251 29 -169 30 -197 7 -226 -16 -20 -44 -26 -337 -63 -176 -22
-347 -44 -380 -49 -73 -11 -102 3 -109 51 -3 18 -15 89 -27 158 -31 175 -32
193 -17 211 7 9 65 27 133 43 66 15 230 53 365 86 135 32 249 59 253 59 5 1
21 -8 37 -19z"/>
<path d="M7491 10268 c-17 -35 -38 -92 -47 -128 -21 -79 -23 -231 -5 -315 92
-429 530 -788 1281 -1050 57 -19 105 -33 107 -31 3 2 -74 181 -170 398 -96
216 -187 422 -202 458 -15 36 -32 70 -38 76 -7 7 -49 24 -95 39 -110 36 -273
119 -374 192 -107 76 -249 212 -344 329 -42 52 -78 94 -80 94 -1 0 -16 -28
-33 -62z"/>
<path d="M10677 6208 c8 -177 -28 -297 -119 -387 -44 -45 -157 -106 -215 -117
-18 -3 -33 -9 -33 -13 0 -4 106 -58 236 -120 l237 -113 23 28 c122 151 140
467 37 656 -33 61 -99 136 -141 161 l-30 17 5 -112z"/>
</g>
</svg>
